<?xml version="1.0" encoding="UTF-8"?>
<!-- Simple dove logo SVG - white shape with transparent background -->
<svg xmlns="http://www.w3.org/2000/svg" viewBox="0 0 64 64" width="64" height="64" aria-hidden="true" role="img">
  <title>Duif logo</title>
  <g fill="none" fill-rule="evenodd">
    <path d="M2 34c0 0 8-10 22-12 0 0 6-1 12 2 6 3 14 6 20 6 0 0-2-8-6-12-4-4-10-6-18-6C26 12 12 20 6 30c0 0 1 4 4 4 0 0 2-6 8-8 6-2 12-1 12-1s-6 1-10 5c-4 4-6 9-6 9s4-1 10-5c6-4 14-6 20-4 6 2 8 6 8 6s-6 0-12 4c-6 4-12 10-14 14-2 4-2 8 2 12 4 4 10 2 14-2 4-4 8-10 12-12 4-2 8-1 8-1s-2 6-6 10c-4 4-10 8-14 10-4 2-10 4-16 2-6-2-10-8-10-14s2-10 6-14c4-4 10-8 10-8s-6 2-10 6C10 46 6 50 2 52" fill="#ffffff"/>
  </g>
</svg>
